<svg width="20" height="16" viewBox="0 0 20 16" fill="none" xmlns="http://www.w3.org/2000/svg">
<path opacity="0.5" d="M19.5948 0.985054C19.5945 0.971184 19.5938 0.957337 19.5927 0.943512C19.5918 0.932228 19.5907 0.92102 19.5893 0.909889C19.5877 0.896934 19.5857 0.884048 19.5834 0.871162C19.5814 0.859537 19.5791 0.847999 19.5766 0.836579C19.5738 0.824356 19.5706 0.812248 19.5672 0.800163C19.5639 0.788605 19.5606 0.777161 19.5568 0.765851C19.5529 0.754039 19.5485 0.742413 19.544 0.730788C19.5397 0.719665 19.5352 0.708655 19.5304 0.69783C19.5253 0.686386 19.5198 0.675147 19.5141 0.663932C19.5087 0.653289 19.5031 0.64276 19.4973 0.632415C19.4911 0.621727 19.4847 0.611221 19.4781 0.60076C19.4713 0.590209 19.4644 0.579863 19.4572 0.569678C19.4504 0.560089 19.4433 0.550681 19.436 0.541343C19.4278 0.530837 19.4193 0.520624 19.4105 0.510581C19.4064 0.505843 19.4028 0.500808 19.3986 0.496143C19.395 0.492206 19.391 0.488865 19.3873 0.48502C19.3783 0.475544 19.3689 0.466457 19.3594 0.457462C19.3505 0.449131 19.3416 0.440868 19.3325 0.433018C19.3235 0.42533 19.3142 0.418049 19.3048 0.41077C19.2945 0.402801 19.2843 0.394909 19.2738 0.387562C19.2646 0.381176 19.2551 0.375248 19.2457 0.369274C19.2345 0.362224 19.2234 0.355198 19.212 0.348789C19.202 0.343204 19.1917 0.338147 19.1815 0.333019C19.1702 0.327366 19.159 0.321666 19.1475 0.316613C19.1362 0.311669 19.1248 0.307366 19.1133 0.302971C19.1022 0.29876 19.0912 0.294481 19.0801 0.290818C19.0679 0.286813 19.0555 0.28347 19.0432 0.280083C19.0321 0.277062 19.021 0.274018 19.0099 0.271523C18.9975 0.268754 18.985 0.26658 18.9724 0.264428C18.9605 0.262413 18.9487 0.260446 18.9367 0.259004C18.9248 0.257562 18.9129 0.2566 18.9009 0.255731C18.8878 0.254769 18.8747 0.254013 18.8615 0.253739C18.8562 0.253616 18.8511 0.25293 18.8457 0.25293H0.845703C0.840668 0.25293 0.835815 0.253593 0.83078 0.253685C0.816956 0.25396 0.803131 0.254738 0.789353 0.255767C0.777954 0.256637 0.766647 0.25753 0.755432 0.258881C0.742843 0.260391 0.730347 0.262451 0.717804 0.264626C0.705856 0.266688 0.693909 0.268723 0.68219 0.271354C0.670377 0.273987 0.658752 0.277191 0.647034 0.280396C0.635221 0.283646 0.623413 0.286827 0.611831 0.290627C0.600113 0.29447 0.588581 0.298935 0.576996 0.303377C0.566055 0.307588 0.555069 0.311707 0.544357 0.316399C0.532409 0.321641 0.520732 0.327546 0.509013 0.333451C0.499169 0.338395 0.489326 0.343224 0.479763 0.34858C0.468044 0.355149 0.4566 0.362361 0.445156 0.369615C0.436001 0.375427 0.426754 0.381196 0.417875 0.387399C0.407118 0.394861 0.396727 0.402868 0.386336 0.410973C0.377088 0.418138 0.367933 0.425325 0.359054 0.432923C0.349808 0.44082 0.340881 0.449128 0.331909 0.457574C0.322434 0.466501 0.313141 0.475564 0.304123 0.484971C0.300461 0.488839 0.296435 0.492204 0.292816 0.496141C0.288559 0.500809 0.284988 0.505845 0.280869 0.510578C0.272126 0.520626 0.263611 0.530835 0.255369 0.54134C0.248091 0.550679 0.240995 0.56009 0.234221 0.569675C0.226988 0.57986 0.220076 0.590206 0.213346 0.600757C0.206709 0.611218 0.200254 0.621723 0.19412 0.632412C0.188261 0.642757 0.182722 0.653286 0.177321 0.663929C0.171644 0.675144 0.166106 0.686383 0.160978 0.697827C0.156172 0.708652 0.151732 0.719662 0.147429 0.730786C0.142897 0.742411 0.138502 0.754036 0.134565 0.765848C0.130815 0.777155 0.12747 0.7886 0.12422 0.800161C0.120833 0.812245 0.117628 0.824353 0.114836 0.836576C0.112273 0.847996 0.110029 0.859533 0.107969 0.87116C0.105681 0.884045 0.103666 0.896931 0.102063 0.909887C0.100688 0.921033 0.0995744 0.93224 0.0987219 0.943509C0.0976231 0.957357 0.0969213 0.971204 0.0966163 0.985052C0.0964813 0.991051 0.0957031 0.996887 0.0957031 1.00293V13.7529C0.0961579 14.1506 0.254339 14.5319 0.535545 14.8131C0.816751 15.0943 1.19802 15.2525 1.5957 15.2529H18.0957C18.4934 15.2525 18.8747 15.0943 19.1559 14.8131C19.4371 14.5319 19.5952 14.1506 19.5957 13.7529V1.00293C19.5957 0.996887 19.5949 0.991051 19.5948 0.985054ZM1.5957 2.70789L7.0994 7.75296L1.5957 12.798V2.70789ZM2.77389 13.7529L8.20938 8.77042L9.33887 9.80579C9.47721 9.93259 9.65805 10.0029 9.8457 10.0029C10.0334 10.0029 10.2142 9.93259 10.3525 9.80579L11.4821 8.7704L16.9176 13.7529H2.77389ZM12.592 7.75293L18.0958 2.70776L18.0966 12.7987L12.592 7.75293Z" fill="#1B222B"/>
</svg>
