<svg width="20" height="19" viewBox="0 0 20 19" fill="none" xmlns="http://www.w3.org/2000/svg">
<path opacity="0.5" d="M19.5888 17.6267C18.1894 15.2164 15.9482 13.4085 13.2963 12.5508C14.5667 11.7949 15.5539 10.6428 16.1061 9.27152C16.6583 7.90023 16.7451 6.38556 16.3531 4.96017C15.9611 3.53477 15.1121 2.27747 13.9363 1.38139C12.7605 0.485311 11.3231 0 9.84475 0C8.36644 0 6.92901 0.485311 5.75323 1.38139C4.57745 2.27747 3.72836 3.53477 3.33637 4.96017C2.94438 6.38556 3.03117 7.90023 3.5834 9.27152C4.13564 10.6428 5.12278 11.7949 6.39321 12.5508C3.7414 13.4085 1.5003 15.2163 0.100838 17.6265C0.0348732 17.7405 9.43444e-05 17.8699 1.91675e-07 18.0016C-9.3961e-05 18.1333 0.0345 18.2627 0.100302 18.3768C0.166104 18.4909 0.260792 18.5857 0.374842 18.6515C0.488893 18.7174 0.618282 18.7521 0.749993 18.7521L18.9397 18.7523C19.0714 18.7523 19.2008 18.7176 19.3148 18.6517C19.4289 18.5859 19.5236 18.4911 19.5894 18.377C19.6552 18.2629 19.6898 18.1335 19.6897 18.0018C19.6896 17.8701 19.6548 17.7407 19.5888 17.6267L19.5888 17.6267Z" fill="#1B222B"/>
</svg>
