<svg width="20" height="19" viewBox="0 0 20 19" fill="none" xmlns="http://www.w3.org/2000/svg">
<path opacity="0.5" d="M18.6555 12.6054L14.2645 10.7236C14.0352 10.6249 13.7849 10.5851 13.5364 10.608C13.2878 10.6308 13.0489 10.7155 12.8415 10.8543L10.4937 12.4193C9.05882 11.7214 7.89746 10.5652 7.19323 9.13339L7.19342 9.13321L8.75293 6.75027C8.88867 6.5434 8.97103 6.30611 8.99263 6.05962C9.01423 5.81313 8.9744 5.56513 8.87671 5.3378L6.9931 0.942993C6.86489 0.644674 6.64349 0.395912 6.36205 0.233955C6.08062 0.071998 5.7543 0.00555928 5.43195 0.0445868C4.16526 0.20745 3.00119 0.825889 2.15719 1.78437C1.31319 2.74285 0.846998 3.97582 0.845703 5.25293C0.845703 12.6969 6.90173 18.7529 14.3457 18.7529C15.6228 18.7516 16.8558 18.2854 17.8143 17.4414C18.7728 16.5974 19.3912 15.4333 19.554 14.1666C19.593 13.8442 19.5265 13.518 19.3645 13.2365C19.2025 12.9551 18.9538 12.7337 18.6555 12.6054V12.6054Z" fill="#1B222B"/>
</svg>
